<?xml version="1.0" encoding="iso-8859-1"?>
<!-- Generator: Adobe Illustrator 19.0.0, SVG Export Plug-In . SVG Version: 6.00 Build 0)  -->
<svg version="1.1" id="Layer_1" xmlns="http://www.w3.org/2000/svg" xmlns:xlink="http://www.w3.org/1999/xlink" x="0px" y="0px"
	 viewBox="0 0 512 512" style="enable-background:new 0 0 512 512;" xml:space="preserve">
<g>
	<g>
		<path d="M400.802,169.618h-15.788H126.986h-15.788H95.42L136.558,512h238.885l41.138-342.382H400.802z M184.184,472.012
			L170.412,212.25l31.295-1.661l13.782,259.762L184.184,472.012z M271.673,471.176h-31.347V211.414h31.347V471.176z
			 M327.816,472.012l-31.305-1.661l13.782-259.762l31.295,1.661L327.816,472.012z"/>
	</g>
</g>
<g>
	<g>
		<path d="M330.418,58.661v-8.505C330.418,22.497,307.921,0,280.263,0h-48.525c-27.658,0-50.155,22.497-50.155,50.155v8.505H68.681
			v79.611h15.673h7.293h328.704h7.293h15.673V58.661H330.418z M299.071,58.661h-86.141v-8.505c0-10.376,8.432-18.808,18.808-18.808
			h48.525c10.376,0,18.808,8.432,18.808,18.808V58.661z"/>
	</g>
</g>
<g>
</g>
<g>
</g>
<g>
</g>
<g>
</g>
<g>
</g>
<g>
</g>
<g>
</g>
<g>
</g>
<g>
</g>
<g>
</g>
<g>
</g>
<g>
</g>
<g>
</g>
<g>
</g>
<g>
</g>
</svg>
