<?xml version="1.0" encoding="iso-8859-1"?>
<!-- Generator: Adobe Illustrator 18.0.0, SVG Export Plug-In . SVG Version: 6.00 Build 0)  -->
<!DOCTYPE svg PUBLIC "-//W3C//DTD SVG 1.1//EN" "http://www.w3.org/Graphics/SVG/1.1/DTD/svg11.dtd">
<svg version="1.1" id="Capa_1" xmlns="http://www.w3.org/2000/svg" xmlns:xlink="http://www.w3.org/1999/xlink" x="0px" y="0px"
	 viewBox="0 0 392.619 392.619" style="enable-background:new 0 0 392.619 392.619;" xml:space="preserve">
<g>
	<path d="M310.724,0.929H81.896C36.738,0.929,0,37.667,0,82.825v226.97c0,45.158,36.738,81.896,81.896,81.896h228.828
		c45.157,0,81.896-36.738,81.896-81.896V82.825C392.619,37.667,355.881,0.929,310.724,0.929z M362.619,309.794
		c0,28.616-23.28,51.896-51.896,51.896H81.896C53.28,361.69,30,338.41,30,309.794V82.825c0-28.616,23.28-51.896,51.896-51.896
		h228.828c28.615,0,51.896,23.28,51.896,51.896V309.794z"/>
	<path d="M293.657,209.638c2.762,0,5-2.239,5-5s-2.238-5-5-5h-71.305v-93.222c0-2.485,1.985-4.512,4.469-4.586
		c37.534-1.116,47.961,20.623,57.543,54.863c0.553,1.976,2.359,3.344,4.411,3.344h0.084c2.614,0,4.699-2.183,4.578-4.794
		l-2.678-58.109c-0.113-2.447-2.129-4.372-4.578-4.372H106.438c-2.449,0-4.465,1.926-4.578,4.372l-2.678,58.109
		c-0.12,2.611,1.964,4.794,4.578,4.794h0.084c2.052,0,3.858-1.367,4.411-3.344c9.582-34.239,20.009-55.979,57.543-54.863
		c2.484,0.074,4.469,2.101,4.469,4.586v93.222H98.962c-2.762,0-5,2.239-5,5s2.238,5,5,5h71.306v11.246H98.962c-2.762,0-5,2.239-5,5
		s2.238,5,5,5h71.306v55.091c0,2.531-2.052,4.583-4.583,4.583h-16.256c-2.531,0-4.583,2.052-4.583,4.583v0.134
		c0,2.531,2.052,4.583,4.583,4.583h93.762c2.531,0,4.583-2.052,4.583-4.583v-0.134c0-2.531-2.052-4.583-4.583-4.583h-16.256
		c-2.531,0-4.583-2.052-4.583-4.583v-55.091h71.305c2.762,0,5-2.239,5-5s-2.238-5-5-5h-71.305v-11.246H293.657z"/>
</g>
<g>
</g>
<g>
</g>
<g>
</g>
<g>
</g>
<g>
</g>
<g>
</g>
<g>
</g>
<g>
</g>
<g>
</g>
<g>
</g>
<g>
</g>
<g>
</g>
<g>
</g>
<g>
</g>
<g>
</g>
</svg>
